# xmcd CD database file
#
# Track frame offsets:
#	150
#	30547
#	47087
#	59311
#	87250
#	113222
#	143135
#	153014
#	165867
#	195353
#
# Disc length: 3157 seconds
#
# Revision: 0
# Processed by: cddbd v1.5.2PL0 Copyright (c) Steve Scherf et al.
# Submitted via: CDex 1.70beta2
#
DISCID=700c530a
DTITLE=Giovanni Allevi - Evolution
DYEAR=2008
DGENRE=New Age
TTITLE0=Foglie di beslan
TTITLE1=Whisper
TTITLE2=Keep moving
TTITLE3=A perfect day
TTITLE4=Come sei veramente
TTITLE5=Angelo ribelle
TTITLE6=Corale
TTITLE7=Prendimi
TTITLE8=300 anelli (parte1)
TTITLE9=300 anelli (parte2)
EXTD=YEAR: 2008
EXTT0=
EXTT1=
EXTT2=
EXTT3=
EXTT4=
EXTT5=
EXTT6=
EXTT7=
EXTT8=
EXTT9=
PLAYORDER=
